<svg xmlns="http://www.w3.org/2000/svg" viewBox="0 0 64 64" fill="none">
  <path d="M12 20L23 14L34 19L31 30L19 33L10 28ZM37 12L48 14L54 24L46 30L36 25ZM29 35L44 31L53 40L49 51L35 53L25 44ZM10 41L18 36L24 43L20 52L11 50Z" fill="#59758a" stroke="#202a32" stroke-width="1.3"/>
  <path d="M12 20L23 14L25 24L19 33L10 28ZM37 12L48 14L43 21L36 25Z" fill="#bad6e0"/>
  <path d="M29 35L44 31L42 40L35 53L25 44ZM10 41L18 36L18 45L11 50Z" fill="#87adbc"/>
  <path d="M23 14L25 24L31 30M48 14L43 21L46 30M44 31L42 40L49 51M18 36L18 45L20 52" stroke="#3d6076" stroke-width="0.75"/>
  <path d="M20 24L25 24M35 40L42 40M14 44L18 45" stroke="#e0f3f4" stroke-width="0.6"/>
</svg>
